<?xml version="1.0" encoding="UTF-8"?>
<svg id="Logos" xmlns="http://www.w3.org/2000/svg" viewBox="0 0 190 290">
  <defs>
    <style>
      .cls-1 {
        fill: #441647;
      }

      .cls-2 {
        fill: #7e5c8e;
      }

      .cls-3 {
        fill: #7e5c8e;
      }

      .cls-4 {
        fill: #1f7a78;
      }

      .cls-5 {
        fill: #043736;
      }
    </style>
  </defs>
  <path class="cls-1" d="M189.15,70.78s0-.08,0-.12c0-.01,0-.02,0-.03,0-3.67-.39-4.41-.82-5.85-.66-2.21-2.4-5.24-5.38-7.56,0,0,2.12,5.64-3.34,8.68l-66.01,37.15,66.27,37.4c5.11,3.07,3.08,8.51,3.08,8.51,2.98-2.31,4.72-5.35,5.38-7.56.41-1.39.82-2.18.82-5.85,0,0,0-.02,0-.02,0-.04,0-.07,0-.11v-64.63Z"/>
  <path class="cls-4" d="M182.94,148.96s2.03-5.44-3.08-8.51l-66.27-37.4L8.94,161.94c-4.99,2.81-8.08,8.09-8.08,13.82v67.43s0,.02,0,.03c0,0,0,.01,0,.02.15,2.85,1.22,5.33,1.68,6.24,1.24,2.45,2.89,4.25,4.61,5.55,0,0-4.52-4.36,2.77-8.48,0,0,0,0,0,0l171.13-96.31c1.46-.82,1.89-1.28,1.89-1.28Z"/>
  <path class="cls-5" d="M9.92,246.55s0,0,0,0c-7.21,4.08-2.87,8.38-2.78,8.47.57.43,1.17.83,1.81,1.19l56.96,32.06c4.74,2.67,10.6-.76,10.6-6.2v-72.99L9.92,246.55Z"/>
  <g>
    <path class="cls-2" d="M179.61,65.89c5.25-2.92,3.48-8.28,3.34-8.68-.61-.47-1.23-.86-1.91-1.24L86.43,2.85c-4.68-2.63-10.37-2.71-15.13-.23L9.15,35.08s-.05.04-.08.06c-2.94,1.61-4.54,3.74-5.14,4.52-1.48,1.92-2.52,4.61-2.88,6.95,0,0,2.65-5.59,8.84-2.1l103.71,58.53,66.01-37.15Z"/>
    <path class="cls-3" d="M179.61,65.89c5.25-2.92,3.48-8.28,3.34-8.68-.61-.47-1.23-.86-1.91-1.24L86.43,2.85c-4.68-2.63-10.37-2.71-15.13-.23L9.15,35.08s-.05.04-.08.06c-2.94,1.61-4.54,3.74-5.14,4.52-1.48,1.92-2.52,4.61-2.88,6.95,0,0,2.65-5.59,8.84-2.1l103.71,58.53,66.01-37.15Z"/>
    <polygon class="cls-2" points="165.37 132.26 165.45 132.31 165.45 132.31 165.37 132.26"/>
  </g>
  <path class="cls-5" d="M9.88,44.51c-5.94-3.35-8.62,1.65-8.84,2.1-.13.81-.19,1.59-.19,2.43v63.49c0,5.44,5.86,8.86,10.6,6.2l65.06-36.61L9.88,44.51Z"/>
</svg>