<svg viewBox="0 0 90 90" xmlns="http://www.w3.org/2000/svg"><g fill="none"><path d="M18.486 7.031c-4.087 2.07-4.087 2.39-.264 6.646C39.416 37.158 44.486 42.71 44.866 42.71c.529.059 29.896-31.876 30.22-32.836.132-.263-.777-1.167-1.95-1.998C71.584 6.71 69.9 6.26 66.721 6.127c-5.962-.378-8.04.904-15.44 9.168-3.369 3.73-6.226 6.836-6.226 6.836-.06 0-2.84-3.03-6.154-6.705-3.313-3.674-7.132-7.36-8.423-8.073-2.99-1.676-9.081-1.808-12.012-.322h.02Zm11.337 56.521c-8.041 8.846-14.647 16.323-14.78 16.645-.132.263.777 1.167 1.95 1.998 1.552 1.167 3.237 1.617 6.415 1.749 5.903.378 8.1-.977 15.555-9.358 3.251-3.615 6.035-6.646 6.094-6.646.074 0 2.858 3.03 6.168 6.705 7.588 8.395 9.593 9.62 15.496 9.299 3.178-.132 4.863-.582 6.415-1.75 1.173-.83 2.082-1.734 1.95-1.997-.324-.963-29.708-32.909-30.22-32.836-.264 0-7.003 7.287-15.043 16.191Z" fill="#000"/><path d="M74.12 16.98c2.065-1.036 3.617-1.3 6.607-1.168 4.145.26 8.949 2.2 9.272 3.876.06.51-4.803 6.324-10.898 12.956-6.02 6.646-11.016 12.271-11.016 12.389 0 .131 4.995 5.756 11.016 12.388C85.196 64.067 90.06 69.868 90 70.451c-.323 1.748-5.641 3.948-9.536 3.948-6.286-.073-7.72-1.165-21.006-15.682-6.68-7.29-12.13-13.424-12.13-13.687 0-.25 5.391-6.313 11.998-13.541 8.172-8.908 12.903-13.556 14.793-14.518Zm-69.257-.463c3.121-1.225 8.043-.976 11.089.51 2.005.904 6.224 5.101 14.852 14.459 5.127 5.612 9.513 10.52 11.22 12.552l.184.222c.375.452.577.719.577.767 0 .204-5.434 6.4-12.113 13.687-13.3 14.515-14.72 15.609-21.02 15.682-3.881 0-9.196-2.2-9.52-3.949-.073-.509 4.79-6.383 10.884-13.088l.554-.61c5.784-6.372 10.476-11.592 10.476-11.72 0-.117-4.921-5.669-11.016-12.315C4.995 26.068 0 20.25 0 19.8c0-.89 1.685-2.054 4.863-3.28Z" fill="#F66800"/></g></svg>