<?xml version="1.0" encoding="UTF-8"?>
<svg id="Logos" xmlns="http://www.w3.org/2000/svg" viewBox="0 0 270 215">
  <defs>
    <style>
      .cls-1 {
        fill: #0e4432;
      }

      .cls-2 {
        fill: #1f7a78;
      }

      .cls-3 {
        fill: #658045;
      }
    </style>
  </defs>
  <path class="cls-1" d="M173.49,207.56l-50.49-113.55-50.49,113.55c-1.28,2.88-3.92,2.76-3.92,2.76.85.86,1.74,1.6,3.5,2.41,2.08.95,4.49.96,4.49.96,0,0,0,0,0,0h92.84s0,0,0,0c0,0,2.41,0,4.49-.96,1.76-.81,2.65-1.55,3.5-2.41,0,0-2.64.12-3.92-2.76Z"/>
  <g>
    <path class="cls-3" d="M74.49,213.46c.09.02.18.03.28.05-.09-.02-.18-.03-.28-.05Z"/>
    <path class="cls-3" d="M72.51,207.56l50.49-113.55-15.24-35.95c-1.86-3.88-5.78-6.34-10.07-6.34H10.82c-6.29,0-10.42,6.58-7.68,12.25l63.38,143.4c.54,1.11,1.26,2.09,2.1,2.94.19,0,2.66.01,3.89-2.76Z"/>
    <path class="cls-3" d="M73.1,213.1s.09.03.13.04c-.04-.01-.09-.03-.13-.04Z"/>
    <path class="cls-3" d="M70.36,211.77c.08.05.15.1.23.15-.08-.05-.16-.1-.23-.15Z"/>
    <path class="cls-3" d="M71.41,212.37c.17.09.34.18.51.26-.19-.09-.34-.17-.51-.26Z"/>
  </g>
  <g>
    <path class="cls-2" d="M173.43,212.91c.15-.06.31-.12.46-.18-.15.07-.3.12-.46.18Z"/>
    <path class="cls-2" d="M172.79,213.14c-.41.13-.82.23-1.2.31.41-.08.81-.18,1.2-.31Z"/>
    <path class="cls-2" d="M174.05,212.65c.34-.16.68-.32,1-.51-.3.17-.64.34-1,.51Z"/>
    <path class="cls-2" d="M259.18,1.7h-86.88c-4.3,0-8.22,2.47-10.07,6.34l-39.23,85.97,50.55,113.66c1.26,2.66,3.68,2.64,3.83,2.64.84-.85,1.56-1.83,2.09-2.95L266.86,13.95c2.74-5.67-1.39-12.24-7.69-12.24Z"/>
    <path class="cls-2" d="M171.22,213.5s-.06.03-.1.04c.15-.02.3-.07.45-.1-.12.02-.23.04-.35.06Z"/>
    <path class="cls-2" d="M177.02,210.69s.08-.07.11-.11c-.04.04-.08.07-.11.11Z"/>
  </g>
</svg>